<svg version="1.0" xmlns="http://www.w3.org/2000/svg" width="1200.000000pt" height="864.000000pt"
    viewBox="0 0 1200.000000 864.000000" preserveAspectRatio="xMidYMid meet">

    <g transform="translate(0.000000,864.000000) scale(0.100000,-0.100000)" fill="#fff"
        stroke="none">
        <path
            d="M4070 8624 c-19 -2 -87 -9 -150 -15 -767 -73 -1567 -393 -2190 -878 -115 -89 -245 -202 -245 -212 0 -5 193 -202 429 -438 l429 -430 76 63 c649 528 1496 773 2324 670 577 -71 1129 -307 1577 -673 l75 -61 432 432 c238 238 433 436 433 440 0 19 -308 263 -475 376 -490 331 -1091 573 -1670 671 -254 44 -363 53 -690 56 -176 2 -336 1 -355 -1z" />
        <path
            d="M1138 7188 c-380 -425 -675 -935 -862 -1487 -142 -417 -212 -823 -223 -1281 -12 -527 61 -1007 227 -1495 514 -1508 1813 -2606 3395 -2869 173 -29 372 -47 590 -53 1102 -30 2179 370 2999 1113 720 651 1195 1515 1360 2469 45 265 59 437 59 735 0 190 -5 323 -17 430 -100 924 -450 1728 -1056 2424 -41 47 -77 86 -80 86 -3 0 -200 -195 -439 -434 l-434 -434 54 -63 c396 -467 645 -1036 721 -1649 17 -140 17 -583 0 -720 -32 -245 -90 -485 -174 -714 -44 -122 -188 -428 -198 -424 -5 2 -1120 1073 -1663 1598 l-68 65 -379 915 c-209 503 -384 924 -389 935 -6 13 -10 -493 -10 -1390 l0 -1410 852 -819 c469 -451 852 -824 852 -830 0 -14 -166 -133 -296 -210 -937 -564 -2078 -591 -3054 -73 -96 51 -347 212 -413 264 l-22 18 855 823 855 823 0 1407 -1 1407 -37 -90 c-21 -49 -195 -469 -387 -933 l-349 -842 -859 -828 c-473 -455 -863 -828 -867 -830 -17 -7 -129 223 -201 414 -215 572 -252 1218 -104 1821 110 446 320 865 611 1220 46 56 84 105 84 110 0 4 -195 203 -433 441 l-434 434 -65 -74z" />
    </g>
    <g transform="translate(0.000000,864.000000) scale(0.100000,-0.100000)" fill="#f3640c"
        stroke="none">
        <path
            d="M8033 7763 l-190 -197 110 -125 c135 -155 320 -400 419 -558 403 -636 634 -1289 725 -2048 25 -215 25 -815 0 -1030 -119 -994 -507 -1878 -1145 -2606 l-110 -126 197 -197 198 -198 83 94 c401 451 732 982 954 1528 l54 135 1174 5 1173 5 67 33 c81 40 148 110 180 190 l23 57 0 1595 0 1595 -23 57 c-32 80 -99 150 -180 190 l-67 33 -1173 5 -1173 5 -63 150 c-181 431 -378 776 -659 1152 -98 131 -318 395 -364 436 -20 17 -24 13 -210 -180z m3107 -2239 c97 -46 108 -25 -145 -267 l-228 -217 -294 0 -293 0 0 -145 0 -145 -261 0 -261 0 4 193 c4 179 6 197 32 265 57 153 150 267 258 317 l53 25 545 -2 c533 -3 546 -3 590 -24z m258 -290 c11 -30 14 -83 13 -224 -2 -250 -23 -320 -133 -446 -29 -34 -222 -221 -428 -415 -206 -194 -422 -397 -478 -451 l-104 -98 607 0 607 0 -4 -127 c-3 -113 -6 -135 -30 -185 -33 -72 -93 -136 -160 -174 l-53 -29 -817 -3 -818 -2 0 188 c0 316 15 348 285 608 443 427 1481 1402 1489 1400 5 -1 16 -20 24 -42z" />
    </g>
</svg>